<svg xmlns="http://www.w3.org/2000/svg" width="75.96" height="75.68" viewBox="0 0 75.96 75.68">
  <g>
    <path d="M38.81,42.26h6.43V64.05l1.91.78V42.29H76V44H48.87V67.4l-3.63-1.49v3.14L32,75.68V55L24.7,59V44H0V42.29H26.42V56.1L32,53V42.29h4.81v10L33.67,54V72.9L43.52,68V65.2l-4.71-1.92Zm4.71,21.08V44h-3V62.12ZM33.67,52.07,35,51.31V44H33.67Z" fill="#b2b2b2" fill-rule="evenodd"/>
    <path d="M43.52,0V10.09l5.74,1.52V33.42H75.9v2.45H46.82V13.49l-3.3-.87V35.87H37.25V8.42l3.82,1V3.83l-10,4.64V20.79l4.4-2.35V35.87H28.66v-11l-1.9,1v10H0V33.42H24.31v-9l4.35-2.32V6.91ZM31.11,23.57v9.85h2V22.52Zm10-11.6-1.38-.37V33.42h1.38Z" fill="#014751" fill-rule="evenodd"/>
  </g>
</svg>
