<svg xmlns="http://www.w3.org/2000/svg" xmlns:xlink="http://www.w3.org/1999/xlink"><symbol id="back" viewBox="0 0 10 14"><g fill="none">
<path d="M9 12.7998L2 7.1998L9 1.5998" stroke="#014751" stroke-width="2" stroke-linecap="round"/>
</g></symbol><symbol id="home" viewBox="0 0 28 24"><g fill="none">
<g opacity="0.16">
<path d="M14 0.100098L0 12.7001H4.2V23.9001H11.2V15.5001H16.8V23.9001H23.8V12.7001H28L14 0.100098Z" fill="#035063"/>
</g>
</g></symbol><symbol id="map" viewBox="0 0 14 19"><g fill="none">
<path d="M6.62658 0.536499C2.97286 0.536499 0 3.50936 0 7.16344C0 8.11657 0.195083 9.02659 0.57954 9.86845C2.23637 13.494 5.41297 17.3218 6.34731 18.4085C6.41731 18.4897 6.51936 18.5365 6.62676 18.5365C6.73416 18.5365 6.83621 18.4897 6.90621 18.4085C7.84018 17.322 11.0168 13.4944 12.6742 9.86845C13.0588 9.02659 13.2537 8.11657 13.2537 7.16344C13.2533 3.50936 10.2805 0.536499 6.62658 0.536499ZM6.62658 10.6055C4.72861 10.6055 3.18434 9.06122 3.18434 7.16326C3.18434 5.26511 4.72861 3.72084 6.62658 3.72084C8.52454 3.72084 10.0688 5.26511 10.0688 7.16326C10.069 9.06122 8.52473 10.6055 6.62658 10.6055Z" fill="#014751"/>
</g></symbol><symbol id="menu" viewBox="0 0 24 18"><g fill="none">
<line x1="1" y1="1" x2="23" y2="1" stroke="#035063" stroke-width="2" stroke-linecap="round"/>
<line x1="1" y1="9" x2="15" y2="9" stroke="#035063" stroke-width="2" stroke-linecap="round"/>
<line x1="1" y1="17" x2="23" y2="17" stroke="#035063" stroke-width="2" stroke-linecap="round"/>
<circle cx="22" cy="9" r="2" fill="#014751"/>
</g></symbol><symbol id="search" viewBox="0 0 24 24"><g fill="none">
<path d="M22.9063 21.2597L17.7767 16.1301C19.0379 14.5158 19.7929 12.4813 19.7929 10.2714C19.7929 5.01499 15.5279 0.75 10.2714 0.75C5.01042 0.75 0.75 5.01507 0.75 10.2714C0.75 15.5278 5.01042 19.7929 10.2714 19.7929C12.4811 19.7929 14.5115 19.0422 16.1256 17.7811L21.2563 22.9074C21.2563 22.9074 21.2563 22.9074 21.2564 22.9075C21.713 23.364 22.45 23.3642 22.9068 22.9079C23.3644 22.4555 23.3644 21.7128 22.9069 21.2603C22.9067 21.2601 22.9065 21.2599 22.9063 21.2597ZM10.2714 17.4475C6.31022 17.4475 3.09082 14.228 3.09082 10.2714C3.09082 6.31471 6.31041 3.09082 10.2714 3.09082C14.2281 3.09082 17.452 6.31481 17.452 10.2714C17.452 14.2279 14.2282 17.4475 10.2714 17.4475Z" fill="#035063" stroke="#035063" stroke-width="0.5"/>
</g></symbol><symbol id="telegram" viewBox="0 0 32 32"><g fill="none">
<rect width="32" height="32" rx="16" fill="#014751"/>
<path fill-rule="evenodd" clip-rule="evenodd" d="M15.7229 20.2583C15.1084 20.8642 14.5005 21.4594 13.8979 22.06C13.6872 22.27 13.4501 22.3859 13.1479 22.3694C12.9421 22.3582 12.8266 22.2657 12.7635 22.0672C12.3023 20.6157 11.8336 19.1668 11.3745 17.7147C11.3297 17.5733 11.2624 17.5054 11.1221 17.4619C10.0346 17.125 8.94936 16.7808 7.86548 16.4324C7.705 16.3808 7.54251 16.3145 7.40327 16.2209C7.16093 16.058 7.12634 15.7991 7.34765 15.6116C7.55213 15.4383 7.79455 15.2932 8.04291 15.1937C9.41697 14.6431 10.798 14.1104 12.1766 13.5713C15.4928 12.2745 18.8091 10.9779 22.125 9.68053C22.7607 9.43181 23.2546 9.77675 23.1951 10.4713C23.1559 10.9291 23.0382 11.381 22.9438 11.8329C22.209 15.3509 21.4713 18.8683 20.7345 22.3859C20.7331 22.3927 20.7326 22.3997 20.7311 22.4064C20.5509 23.2111 19.9739 23.4311 19.3159 22.9406C18.1737 22.089 17.0344 21.2335 15.8936 20.3799C15.8397 20.3396 15.7839 20.3017 15.7229 20.2583ZM13.1991 21.3662C13.2168 21.2836 13.2292 21.2455 13.2328 21.2066C13.3052 20.4155 13.381 19.6247 13.4452 18.8328C13.4595 18.6571 13.5112 18.5273 13.6454 18.4053C15.3763 16.8311 17.1019 15.2508 18.8289 13.6721C19.3202 13.2231 19.8134 12.7762 20.2999 12.3219C20.351 12.2742 20.3621 12.1826 20.3918 12.1113C20.3166 12.0897 20.2324 12.0351 20.1682 12.0532C20.0199 12.0951 19.8705 12.1549 19.7404 12.2377C17.1727 13.874 14.6084 15.5156 12.0406 17.1517C11.91 17.235 11.8727 17.3035 11.9251 17.463C12.3317 18.7004 12.7265 19.9418 13.1255 21.1818C13.1412 21.2304 13.1632 21.2769 13.1991 21.3662Z" fill="white"/>
</g></symbol><symbol id="viber" viewBox="0 0 32 32"><g fill="none">
<rect width="32" height="32" rx="16" fill="#014751"/>
<path fill-rule="evenodd" clip-rule="evenodd" d="M21.4884 19.1921L21.4884 19.1921L21.488 19.1917C21.3973 19.1267 21.3067 19.0616 21.2164 18.9964C20.1723 18.2415 19.2173 18.1828 18.4382 19.3973C18.0007 20.0791 17.3883 20.109 16.7479 19.8099C14.9825 18.9858 13.6192 17.7162 12.8206 15.869C12.4674 15.0518 12.472 14.3191 13.2985 13.7411C13.7361 13.4354 14.177 13.0737 14.1417 12.4058C14.0957 11.5349 12.0415 8.6244 11.2303 8.31722C10.8947 8.19008 10.5604 8.19836 10.2189 8.3165C8.31677 8.97498 7.52892 10.5853 8.28344 12.492C10.5344 18.1806 14.4957 22.1408 19.9487 24.5579C20.1754 24.6582 20.4204 24.7146 20.6042 24.757C20.6726 24.7727 20.7324 24.7865 20.7798 24.7999C22.0213 24.8128 23.4756 23.5815 23.8956 22.3595C24.251 21.3263 23.6339 20.8407 23.0202 20.3579L23.0202 20.3579C22.9357 20.2914 22.8512 20.225 22.7694 20.1572C22.3578 19.816 21.9228 19.5038 21.4884 19.1921ZM16.6552 8.90043C20.6417 9.53148 22.4802 11.4828 22.9878 15.616C22.9981 15.6992 22.9996 15.7914 23.0011 15.885V15.8851C23.0064 16.2213 23.012 16.5746 23.4259 16.5829C23.8881 16.5919 23.8709 16.1981 23.8555 15.8453C23.8525 15.776 23.8496 15.7083 23.8503 15.6456C23.8971 11.7529 20.5998 8.14413 16.7705 8.01108C16.7026 8.02114 16.6176 8.01514 16.5268 8.00873C16.2315 7.98787 15.875 7.96269 15.8465 8.47257C15.8265 8.83292 16.1462 8.85685 16.4439 8.87915C16.5175 8.88466 16.5898 8.89007 16.6552 8.90043ZM17.2553 10.0058L17.2553 10.0058C16.9086 9.94679 16.532 9.88269 16.4559 10.3479C16.3801 10.8135 16.7358 10.8637 17.0664 10.9103C17.1439 10.9213 17.2201 10.932 17.289 10.9479C19.7512 11.5143 20.6085 12.4368 21.0138 14.9509C21.0256 15.0237 21.0304 15.1046 21.0352 15.1867V15.1867C21.0548 15.5179 21.0756 15.8692 21.5605 15.7934C21.8995 15.7403 21.8897 15.4479 21.8809 15.185C21.8781 15.1001 21.8753 15.0182 21.8845 14.9485C21.9044 12.5347 19.8951 10.3378 17.4351 10.0337C17.3774 10.0266 17.3168 10.0162 17.2553 10.0058ZM17.0599 12.3241C17.154 12.0425 17.4052 12.014 17.6611 12.0075C18.7525 11.9796 20.0315 13.3259 20.0134 14.4908C20.0247 14.8092 19.9916 15.1444 19.6256 15.1894C19.3616 15.2215 19.1881 14.9934 19.1608 14.712C19.0599 13.6752 18.5284 13.0622 17.5184 12.8953C17.2158 12.8452 16.9186 12.7449 17.0599 12.3241Z" fill="white"/>
</g></symbol><symbol id="whatsapp" viewBox="0 0 32 32"><g fill="none">
<rect width="32" height="32" rx="16" fill="#014751"/>
<path fill-rule="evenodd" clip-rule="evenodd" d="M13.5407 11.6699C13.37 11.2613 13.2406 11.2457 12.9821 11.2353C12.8941 11.2302 12.7961 11.2251 12.6873 11.2251C12.351 11.2251 11.9994 11.3234 11.7873 11.5407C11.5288 11.8045 10.8873 12.4201 10.8873 13.6824C10.8873 14.9448 11.8079 16.1656 11.9321 16.3365C12.0614 16.507 13.7268 19.1352 16.3128 20.2063C18.335 21.0444 18.9351 20.9667 19.3953 20.8685C20.0677 20.7238 20.9107 20.2268 21.1228 19.6269C21.3349 19.0267 21.3349 18.5145 21.2727 18.4059C21.2107 18.2973 21.0399 18.2354 20.7814 18.1059C20.5229 17.9765 19.266 17.3557 19.0282 17.2729C18.7954 17.1851 18.573 17.2161 18.3973 17.4645C18.149 17.8111 17.906 18.163 17.7094 18.375C17.5543 18.5405 17.3007 18.5613 17.0887 18.4733C16.8042 18.3545 16.0078 18.0748 15.0251 17.2006C14.2647 16.523 13.7476 15.6798 13.5977 15.4263C13.4477 15.1677 13.5822 15.0175 13.7011 14.8779C13.8305 14.7175 13.9545 14.6038 14.0838 14.4536C14.2132 14.3036 14.2855 14.2261 14.3683 14.0501C14.4563 13.8794 14.3941 13.7034 14.3321 13.574C14.27 13.4444 13.7528 12.182 13.5407 11.6699ZM15.9973 7.19995C11.1461 7.19995 7.19995 11.1472 7.19995 15.9998C7.19995 17.9243 7.82063 19.7092 8.87566 21.1577L7.7791 24.4273L11.1616 23.3463C12.5528 24.2671 14.213 24.8 16.0026 24.8C20.8538 24.8 24.8 20.8525 24.8 16.0001C24.8 11.1474 20.8538 7.20023 16.0026 7.20023H15.9975V7.19995H15.9973Z" fill="white"/>
</g></symbol></svg>